<?xml version="1.0" encoding="UTF-8" standalone="no"?>
<!-- Created with Inkscape (http://www.inkscape.org/) -->

<svg
   xmlns:dc="http://purl.org/dc/elements/1.1/"
   xmlns:cc="http://creativecommons.org/ns#"
   xmlns:rdf="http://www.w3.org/1999/02/22-rdf-syntax-ns#"
   xmlns:svg="http://www.w3.org/2000/svg"
   xmlns="http://www.w3.org/2000/svg"
   xmlns:sodipodi="http://sodipodi.sourceforge.net/DTD/sodipodi-0.dtd"
   xmlns:inkscape="http://www.inkscape.org/namespaces/inkscape"
   id="svg2"
   version="1.1"
   inkscape:version="0.48.1 r9760"
   width="500"
   height="176.875"
   xml:space="preserve"
   sodipodi:docname="coupon5.svg"
   inkscape:export-filename="/var/www/qcshvac/images/coupon/svg/coupon3.png"
   inkscape:export-xdpi="90"
   inkscape:export-ydpi="90"><metadata
     id="metadata8"><rdf:RDF><cc:Work
         rdf:about=""><dc:format>image/svg+xml</dc:format><dc:type
           rdf:resource="http://purl.org/dc/dcmitype/StillImage" /><dc:title /></cc:Work></rdf:RDF></metadata><defs
     id="defs6" /><sodipodi:namedview
     pagecolor="#ffffff"
     bordercolor="#666666"
     borderopacity="1"
     objecttolerance="10"
     gridtolerance="10"
     guidetolerance="10"
     inkscape:pageopacity="0"
     inkscape:pageshadow="2"
     inkscape:window-width="1366"
     inkscape:window-height="691"
     id="namedview4"
     showgrid="false"
     inkscape:zoom="1.3548166"
     inkscape:cx="227.25534"
     inkscape:cy="57.699508"
     inkscape:window-x="0"
     inkscape:window-y="24"
     inkscape:window-maximized="1"
     inkscape:current-layer="g5092" /><g
     id="g10"
     inkscape:groupmode="layer"
     inkscape:label="coupon2"
     transform="matrix(1.25,0,0,-1.25,0,176.875)">


<text
   transform="scale(1,-1)"
   id="text12"
   x="21.621048"
   y="-105.24622"
   sodipodi:linespacing="125%"
   style="font-size:11.97163677px;line-height:125%"><tspan
     style="font-size:18.35651016px;font-style:normal;font-variant:normal;font-weight:bold;font-stretch:normal;text-align:start;line-height:125%;writing-mode:lr-tb;text-anchor:start;fill:#000000;fill-opacity:1;fill-rule:nonzero;stroke:none;font-family:Century Schoolbook L;-inkscape-font-specification:Century Schoolbook L Bold"
     sodipodi:role="line"
     id="tspan14"
     x="21.621048"
     y="-105.24622">Duct Cleaning</tspan></text>




<text
   transform="matrix(1,0,0,-1,324,99.2402)"
   id="text16"><tspan
     style="font-size:30px;font-variant:normal;font-weight:bold;font-stretch:condensed;writing-mode:lr-tb;fill:#0000cc;fill-opacity:1;fill-rule:nonzero;stroke:none;font-family:Myriad Pro Cond;-inkscape-font-specification:MyriadPro-BoldCond"
     sodipodi:role="line"
     id="tspan18"
     x="0"
     y="0" /></text>




<text
   transform="matrix(1,0,0,-1,364.5,107.5444)"
   id="text20"><tspan
     style="font-size:18px;font-variant:normal;font-weight:bold;font-stretch:condensed;writing-mode:lr-tb;fill:#0000cc;fill-opacity:1;fill-rule:nonzero;stroke:none;font-family:Myriad Pro Cond;-inkscape-font-specification:MyriadPro-BoldCond"
     sodipodi:role="line"
     id="tspan22"
     x="0"
     y="0" /></text>




<text
   transform="scale(1,-1)"
   id="text24"
   sodipodi:linespacing="102%"
   style="line-height:101.99999809%"
   x="46.262142"
   y="-85.660309"><tspan
     style="font-size:12px;font-variant:normal;font-weight:normal;font-stretch:condensed;line-height:101.99999809%;writing-mode:lr-tb;fill:#000000;fill-opacity:1;fill-rule:nonzero;stroke:none;font-family:Tw Cen MT Condensed;-inkscape-font-specification:TwCenMT-Condensed"
     x="46.262142"
     sodipodi:role="line"
     y="-85.660309"
     id="tspan5327">Free duct cleaning with all</tspan><tspan
     style="font-size:12px;font-variant:normal;font-weight:normal;font-stretch:condensed;line-height:101.99999809%;writing-mode:lr-tb;fill:#000000;fill-opacity:1;fill-rule:nonzero;stroke:none;font-family:Tw Cen MT Condensed;-inkscape-font-specification:TwCenMT-Condensed"
     x="46.262142"
     sodipodi:role="line"
     y="-73.420311"
     id="tspan3639">installations.</tspan><tspan
     style="font-size:12px;font-variant:normal;font-weight:normal;font-stretch:condensed;line-height:101.99999809%;writing-mode:lr-tb;fill:#000000;fill-opacity:1;fill-rule:nonzero;stroke:none;font-family:Tw Cen MT Condensed;-inkscape-font-specification:TwCenMT-Condensed"
     x="46.262142"
     sodipodi:role="line"
     y="-61.180309"
     id="tspan3641">Call for more details.</tspan></text>




<g
   id="g5057"
   transform="translate(9.8280394,-15.744734)"
   style="fill:#00b7ff;fill-opacity:0.86666667"><text
   style="line-height:125%;fill:#00b7ff;fill-opacity:0.86666667"
   y="-40.927811"
   x="89.193222"
   id="text30"
   transform="scale(1,-1)"
   sodipodi:linespacing="125%"><tspan
     y="-40.927811"
     x="89.193222"
     id="tspan32"
     sodipodi:role="line"
     style="font-size:17px;font-style:normal;font-variant:normal;font-weight:bold;font-stretch:normal;text-align:start;line-height:125%;writing-mode:lr-tb;text-anchor:start;fill:#00b7ff;fill-opacity:0.86666667;fill-rule:nonzero;stroke:none;font-family:Bitstream Charter;-inkscape-font-specification:Bitstream Charter Bold">First Response Air Conditioning & Heating</tspan></text>




<text
   y="-44.441624"
   x="73.638054"
   id="text34"
   transform="scale(1,-1)"
   style="fill:#00b7ff;fill-opacity:0.86666667"><tspan
     x="73.638054 79.110054"
     y="-44.441624"
     id="tspan36"
     sodipodi:role="line"
     style="font-size:12px;font-variant:normal;font-weight:normal;font-stretch:semi-condensed;writing-mode:lr-tb;fill:#00b7ff;fill-opacity:0.86666667;fill-rule:nonzero;stroke:none;font-family:Arial Narrow;-inkscape-font-specification:ArialNarrow">by</tspan></text>




</g><g
   id="g5092"
   transform="translate(-28,-2.9524303)"><g
   transform="translate(57.5,44.999995)"
   id="g38"><path
     inkscape:connector-curvature="0"
     id="path40"
     style="fill:none;stroke:#999999;stroke-width:3;stroke-linecap:butt;stroke-linejoin:miter;stroke-miterlimit:4;stroke-opacity:1;stroke-dasharray:none"
     d="M 0,0 341,0" /></g>



<text
   style="font-size:12px"
   y="-47.835186"
   x="245.76561"
   id="text46"
   transform="scale(1,-1)"><tspan
     id="tspan4207"
     y="-47.835186"
     x="245.76561"
     sodipodi:role="line"
     style="font-size:6.4000001px;font-variant:normal;font-weight:normal;font-stretch:semi-condensed;writing-mode:lr-tb;fill:#000000;fill-opacity:1;fill-rule:nonzero;stroke:none;font-family:Arial Narrow;-inkscape-font-specification:ArialNarrow">*Not valid with any other offers or prior services</tspan></text>
</g><text
   transform="matrix(1,0,0,-1,313.478,96.8726)"
   id="text50"><tspan
     style="font-size:33px;font-variant:normal;font-weight:normal;font-stretch:semi-condensed;writing-mode:lr-tb;fill:#000000;fill-opacity:1;fill-rule:nonzero;stroke:none;font-family:Arial Narrow;-inkscape-font-specification:ArialNarrow"
     x="0"
     y="0"
     id="tspan52" /></text>




<path
   d="m 9.689,45.964 3,0 0,5.569 -3,0 0,-5.569 z"
   style="fill:#231f20;fill-opacity:1;fill-rule:evenodd;stroke:none"
   id="path54" /><path
   d="m 9.689,35.977 3,0 0,5.568 -3,0 0,-5.568 z"
   style="fill:#231f20;fill-opacity:1;fill-rule:evenodd;stroke:none"
   id="path56" /><path
   d="m 9.689,26.021 3,0 0,5.568 -3,0 0,-5.568 z"
   style="fill:#231f20;fill-opacity:1;fill-rule:evenodd;stroke:none"
   id="path58" /><path
   d="m 9.689,75.966 3,0 0,5.568 -3,0 0,-5.568 z"
   style="fill:#231f20;fill-opacity:1;fill-rule:evenodd;stroke:none"
   id="path60" /><path
   d="m 9.689,65.978 3,0 0,5.568 -3,0 0,-5.568 z"
   style="fill:#231f20;fill-opacity:1;fill-rule:evenodd;stroke:none"
   id="path62" /><path
   d="m 9.689,56.022 3,0 0,5.568 -3,0 0,-5.568 z"
   style="fill:#231f20;fill-opacity:1;fill-rule:evenodd;stroke:none"
   id="path64" /><path
   d="m 9.689,105.967 3,0 0,5.568 -3,0 0,-5.568 z"
   style="fill:#231f20;fill-opacity:1;fill-rule:evenodd;stroke:none"
   id="path66" /><path
   d="m 9.689,95.979 3,0 0,5.569 -3,0 0,-5.569 z"
   style="fill:#231f20;fill-opacity:1;fill-rule:evenodd;stroke:none"
   id="path68" /><path
   d="m 9.689,86.023 3,0 0,5.569 -3,0 0,-5.569 z"
   style="fill:#231f20;fill-opacity:1;fill-rule:evenodd;stroke:none"
   id="path70" /><path
   d="m 45.685,126.811 4.997,0 0,3 -4.997,0 0,-3 z"
   style="fill:#231f20;fill-opacity:1;fill-rule:evenodd;stroke:none"
   id="path72" /><path
   d="m 36.722,126.811 4.998,0 0,3 -4.998,0 0,-3 z"
   style="fill:#231f20;fill-opacity:1;fill-rule:evenodd;stroke:none"
   id="path74" /><path
   d="m 27.788,126.811 4.997,0 0,3 -4.997,0 0,-3 z"
   style="fill:#231f20;fill-opacity:1;fill-rule:evenodd;stroke:none"
   id="path76" /><path
   d="m 72.608,126.811 4.997,0 0,3 -4.997,0 0,-3 z"
   style="fill:#231f20;fill-opacity:1;fill-rule:evenodd;stroke:none"
   id="path78" /><path
   d="m 63.645,126.811 4.998,0 0,3 -4.998,0 0,-3 z"
   style="fill:#231f20;fill-opacity:1;fill-rule:evenodd;stroke:none"
   id="path80" /><path
   d="m 54.711,126.811 4.998,0 0,3 -4.998,0 0,-3 z"
   style="fill:#231f20;fill-opacity:1;fill-rule:evenodd;stroke:none"
   id="path82" /><path
   d="m 99.532,126.811 4.997,0 0,3 -4.997,0 0,-3 z"
   style="fill:#231f20;fill-opacity:1;fill-rule:evenodd;stroke:none"
   id="path84" /><path
   d="m 90.568,126.811 4.998,0 0,3 -4.998,0 0,-3 z"
   style="fill:#231f20;fill-opacity:1;fill-rule:evenodd;stroke:none"
   id="path86" /><path
   d="m 81.635,126.811 4.998,0 0,3 -4.998,0 0,-3 z"
   style="fill:#231f20;fill-opacity:1;fill-rule:evenodd;stroke:none"
   id="path88" /><path
   d="m 126.455,126.811 4.997,0 0,3 -4.997,0 0,-3 z"
   style="fill:#231f20;fill-opacity:1;fill-rule:evenodd;stroke:none"
   id="path90" /><path
   d="m 117.492,126.811 4.998,0 0,3 -4.998,0 0,-3 z"
   style="fill:#231f20;fill-opacity:1;fill-rule:evenodd;stroke:none"
   id="path92" /><path
   d="m 108.558,126.811 4.998,0 0,3 -4.998,0 0,-3 z"
   style="fill:#231f20;fill-opacity:1;fill-rule:evenodd;stroke:none"
   id="path94" /><path
   d="m 153.378,126.811 4.998,0 0,3 -4.998,0 0,-3 z"
   style="fill:#231f20;fill-opacity:1;fill-rule:evenodd;stroke:none"
   id="path96" /><path
   d="m 144.416,126.811 4.997,0 0,3 -4.997,0 0,-3 z"
   style="fill:#231f20;fill-opacity:1;fill-rule:evenodd;stroke:none"
   id="path98" /><path
   d="m 135.481,126.811 4.998,0 0,3 -4.998,0 0,-3 z"
   style="fill:#231f20;fill-opacity:1;fill-rule:evenodd;stroke:none"
   id="path100" /><path
   d="m 180.302,126.811 4.998,0 0,3 -4.998,0 0,-3 z"
   style="fill:#231f20;fill-opacity:1;fill-rule:evenodd;stroke:none"
   id="path102" /><path
   d="m 171.339,126.811 4.997,0 0,3 -4.997,0 0,-3 z"
   style="fill:#231f20;fill-opacity:1;fill-rule:evenodd;stroke:none"
   id="path104" /><path
   d="m 162.405,126.811 4.998,0 0,3 -4.998,0 0,-3 z"
   style="fill:#231f20;fill-opacity:1;fill-rule:evenodd;stroke:none"
   id="path106" /><path
   d="m 207.226,126.811 4.997,0 0,3 -4.997,0 0,-3 z"
   style="fill:#231f20;fill-opacity:1;fill-rule:evenodd;stroke:none"
   id="path108" /><path
   d="m 198.262,126.811 4.998,0 0,3 -4.998,0 0,-3 z"
   style="fill:#231f20;fill-opacity:1;fill-rule:evenodd;stroke:none"
   id="path110" /><path
   d="m 189.328,126.811 4.998,0 0,3 -4.998,0 0,-3 z"
   style="fill:#231f20;fill-opacity:1;fill-rule:evenodd;stroke:none"
   id="path112" /><path
   d="m 234.148,126.811 4.997,0 0,3 -4.997,0 0,-3 z"
   style="fill:#231f20;fill-opacity:1;fill-rule:evenodd;stroke:none"
   id="path114" /><path
   d="m 225.186,126.811 4.997,0 0,3 -4.997,0 0,-3 z"
   style="fill:#231f20;fill-opacity:1;fill-rule:evenodd;stroke:none"
   id="path116" /><path
   d="m 216.252,126.811 4.997,0 0,3 -4.997,0 0,-3 z"
   style="fill:#231f20;fill-opacity:1;fill-rule:evenodd;stroke:none"
   id="path118" /><path
   d="m 261.072,126.811 4.997,0 0,3 -4.997,0 0,-3 z"
   style="fill:#231f20;fill-opacity:1;fill-rule:evenodd;stroke:none"
   id="path120" /><path
   d="m 252.108,126.811 4.998,0 0,3 -4.998,0 0,-3 z"
   style="fill:#231f20;fill-opacity:1;fill-rule:evenodd;stroke:none"
   id="path122" /><path
   d="m 243.175,126.811 4.998,0 0,3 -4.998,0 0,-3 z"
   style="fill:#231f20;fill-opacity:1;fill-rule:evenodd;stroke:none"
   id="path124" /><path
   d="m 287.995,126.811 4.997,0 0,3 -4.997,0 0,-3 z"
   style="fill:#231f20;fill-opacity:1;fill-rule:evenodd;stroke:none"
   id="path126" /><path
   d="m 279.032,126.811 4.997,0 0,3 -4.997,0 0,-3 z"
   style="fill:#231f20;fill-opacity:1;fill-rule:evenodd;stroke:none"
   id="path128" /><path
   d="m 270.099,126.811 4.997,0 0,3 -4.997,0 0,-3 z"
   style="fill:#231f20;fill-opacity:1;fill-rule:evenodd;stroke:none"
   id="path130" /><path
   d="m 314.919,126.811 4.997,0 0,3 -4.997,0 0,-3 z"
   style="fill:#231f20;fill-opacity:1;fill-rule:evenodd;stroke:none"
   id="path132" /><path
   d="m 305.955,126.811 4.998,0 0,3 -4.998,0 0,-3 z"
   style="fill:#231f20;fill-opacity:1;fill-rule:evenodd;stroke:none"
   id="path134" /><path
   d="m 297.021,126.811 4.998,0 0,3 -4.998,0 0,-3 z"
   style="fill:#231f20;fill-opacity:1;fill-rule:evenodd;stroke:none"
   id="path136" /><path
   d="m 341.842,126.811 4.998,0 0,3 -4.998,0 0,-3 z"
   style="fill:#231f20;fill-opacity:1;fill-rule:evenodd;stroke:none"
   id="path138" /><path
   d="m 332.879,126.811 4.997,0 0,3 -4.997,0 0,-3 z"
   style="fill:#231f20;fill-opacity:1;fill-rule:evenodd;stroke:none"
   id="path140" /><path
   d="m 323.945,126.811 4.997,0 0,3 -4.997,0 0,-3 z"
   style="fill:#231f20;fill-opacity:1;fill-rule:evenodd;stroke:none"
   id="path142" /><path
   d="m 368.766,126.811 4.997,0 0,3 -4.997,0 0,-3 z"
   style="fill:#231f20;fill-opacity:1;fill-rule:evenodd;stroke:none"
   id="path144" /><path
   d="m 359.803,126.811 4.997,0 0,3 -4.997,0 0,-3 z"
   style="fill:#231f20;fill-opacity:1;fill-rule:evenodd;stroke:none"
   id="path146" /><path
   d="m 350.868,126.811 4.998,0 0,3 -4.998,0 0,-3 z"
   style="fill:#231f20;fill-opacity:1;fill-rule:evenodd;stroke:none"
   id="path148" /><path
   d="m 391.811,91.536 -3,0 0,-5.569 3,0 0,5.569 z"
   style="fill:#231f20;fill-opacity:1;fill-rule:evenodd;stroke:none"
   id="path150" /><path
   d="m 391.811,101.523 -3,0 0,-5.568 3,0 0,5.568 z"
   style="fill:#231f20;fill-opacity:1;fill-rule:evenodd;stroke:none"
   id="path152" /><path
   d="m 391.811,111.479 -3,0 0,-5.568 3,0 0,5.568 z"
   style="fill:#231f20;fill-opacity:1;fill-rule:evenodd;stroke:none"
   id="path154" /><path
   d="m 391.811,61.534 -3,0 0,-5.568 3,0 0,5.568 z"
   style="fill:#231f20;fill-opacity:1;fill-rule:evenodd;stroke:none"
   id="path156" /><path
   d="m 391.811,71.522 -3,0 0,-5.568 3,0 0,5.568 z"
   style="fill:#231f20;fill-opacity:1;fill-rule:evenodd;stroke:none"
   id="path158" /><path
   d="m 391.811,81.478 -3,0 0,-5.568 3,0 0,5.568 z"
   style="fill:#231f20;fill-opacity:1;fill-rule:evenodd;stroke:none"
   id="path160" /><path
   d="m 391.811,31.533 -3,0 0,-5.568 3,0 0,5.568 z"
   style="fill:#231f20;fill-opacity:1;fill-rule:evenodd;stroke:none"
   id="path162" /><path
   d="m 391.811,41.521 -3,0 0,-5.569 3,0 0,5.569 z"
   style="fill:#231f20;fill-opacity:1;fill-rule:evenodd;stroke:none"
   id="path164" /><path
   d="m 391.811,51.477 -3,0 0,-5.569 3,0 0,5.569 z"
   style="fill:#231f20;fill-opacity:1;fill-rule:evenodd;stroke:none"
   id="path166" /><path
   d="m 355.815,10.689 -4.998,0 0,-3 4.998,0 0,3 z"
   style="fill:#231f20;fill-opacity:1;fill-rule:evenodd;stroke:none"
   id="path168" /><path
   d="m 364.778,10.689 -4.997,0 0,-3 4.997,0 0,3 z"
   style="fill:#231f20;fill-opacity:1;fill-rule:evenodd;stroke:none"
   id="path170" /><path
   d="m 373.712,10.689 -4.997,0 0,-3 4.997,0 0,3 z"
   style="fill:#231f20;fill-opacity:1;fill-rule:evenodd;stroke:none"
   id="path172" /><path
   d="m 328.892,10.689 -4.997,0 0,-3 4.997,0 0,3 z"
   style="fill:#231f20;fill-opacity:1;fill-rule:evenodd;stroke:none"
   id="path174" /><path
   d="m 337.854,10.689 -4.997,0 0,-3 4.997,0 0,3 z"
   style="fill:#231f20;fill-opacity:1;fill-rule:evenodd;stroke:none"
   id="path176" /><path
   d="m 346.789,10.689 -4.998,0 0,-3 4.998,0 0,3 z"
   style="fill:#231f20;fill-opacity:1;fill-rule:evenodd;stroke:none"
   id="path178" /><path
   d="m 301.969,10.689 -4.998,0 0,-3 4.998,0 0,3 z"
   style="fill:#231f20;fill-opacity:1;fill-rule:evenodd;stroke:none"
   id="path180" /><path
   d="m 310.932,10.689 -4.998,0 0,-3 4.998,0 0,3 z"
   style="fill:#231f20;fill-opacity:1;fill-rule:evenodd;stroke:none"
   id="path182" /><path
   d="m 319.865,10.689 -4.997,0 0,-3 4.997,0 0,3 z"
   style="fill:#231f20;fill-opacity:1;fill-rule:evenodd;stroke:none"
   id="path184" /><path
   d="m 275.045,10.689 -4.997,0 0,-3 4.997,0 0,3 z"
   style="fill:#231f20;fill-opacity:1;fill-rule:evenodd;stroke:none"
   id="path186" /><path
   d="m 284.008,10.689 -4.997,0 0,-3 4.997,0 0,3 z"
   style="fill:#231f20;fill-opacity:1;fill-rule:evenodd;stroke:none"
   id="path188" /><path
   d="m 292.941,10.689 -4.997,0 0,-3 4.997,0 0,3 z"
   style="fill:#231f20;fill-opacity:1;fill-rule:evenodd;stroke:none"
   id="path190" /><path
   d="m 248.122,10.689 -4.998,0 0,-3 4.998,0 0,3 z"
   style="fill:#231f20;fill-opacity:1;fill-rule:evenodd;stroke:none"
   id="path192" /><path
   d="m 257.085,10.689 -4.998,0 0,-3 4.998,0 0,3 z"
   style="fill:#231f20;fill-opacity:1;fill-rule:evenodd;stroke:none"
   id="path194" /><path
   d="m 266.019,10.689 -4.997,0 0,-3 4.997,0 0,3 z"
   style="fill:#231f20;fill-opacity:1;fill-rule:evenodd;stroke:none"
   id="path196" /><path
   d="m 221.198,10.689 -4.997,0 0,-3 4.997,0 0,3 z"
   style="fill:#231f20;fill-opacity:1;fill-rule:evenodd;stroke:none"
   id="path198" /><path
   d="m 230.161,10.689 -4.997,0 0,-3 4.997,0 0,3 z"
   style="fill:#231f20;fill-opacity:1;fill-rule:evenodd;stroke:none"
   id="path200" /><path
   d="m 239.095,10.689 -4.997,0 0,-3 4.997,0 0,3 z"
   style="fill:#231f20;fill-opacity:1;fill-rule:evenodd;stroke:none"
   id="path202" /><path
   d="m 194.275,10.689 -4.998,0 0,-3 4.998,0 0,3 z"
   style="fill:#231f20;fill-opacity:1;fill-rule:evenodd;stroke:none"
   id="path204" /><path
   d="m 203.238,10.689 -4.998,0 0,-3 4.998,0 0,3 z"
   style="fill:#231f20;fill-opacity:1;fill-rule:evenodd;stroke:none"
   id="path206" /><path
   d="m 212.172,10.689 -4.997,0 0,-3 4.997,0 0,3 z"
   style="fill:#231f20;fill-opacity:1;fill-rule:evenodd;stroke:none"
   id="path208" /><path
   d="m 167.352,10.689 -4.998,0 0,-3 4.998,0 0,3 z"
   style="fill:#231f20;fill-opacity:1;fill-rule:evenodd;stroke:none"
   id="path210" /><path
   d="m 176.314,10.689 -4.997,0 0,-3 4.997,0 0,3 z"
   style="fill:#231f20;fill-opacity:1;fill-rule:evenodd;stroke:none"
   id="path212" /><path
   d="m 185.249,10.689 -4.998,0 0,-3 4.998,0 0,3 z"
   style="fill:#231f20;fill-opacity:1;fill-rule:evenodd;stroke:none"
   id="path214" /><path
   d="m 140.428,10.689 -4.998,0 0,-3 4.998,0 0,3 z"
   style="fill:#231f20;fill-opacity:1;fill-rule:evenodd;stroke:none"
   id="path216" /><path
   d="m 149.391,10.689 -4.997,0 0,-3 4.997,0 0,3 z"
   style="fill:#231f20;fill-opacity:1;fill-rule:evenodd;stroke:none"
   id="path218" /><path
   d="m 158.325,10.689 -4.998,0 0,-3 4.998,0 0,3 z"
   style="fill:#231f20;fill-opacity:1;fill-rule:evenodd;stroke:none"
   id="path220" /><path
   d="m 113.505,10.689 -4.998,0 0,-3 4.998,0 0,3 z"
   style="fill:#231f20;fill-opacity:1;fill-rule:evenodd;stroke:none"
   id="path222" /><path
   d="m 122.468,10.689 -4.998,0 0,-3 4.998,0 0,3 z"
   style="fill:#231f20;fill-opacity:1;fill-rule:evenodd;stroke:none"
   id="path224" /><path
   d="m 131.401,10.689 -4.997,0 0,-3 4.997,0 0,3 z"
   style="fill:#231f20;fill-opacity:1;fill-rule:evenodd;stroke:none"
   id="path226" /><path
   d="m 86.582,10.689 -4.998,0 0,-3 4.998,0 0,3 z"
   style="fill:#231f20;fill-opacity:1;fill-rule:evenodd;stroke:none"
   id="path228" /><path
   d="m 95.544,10.689 -4.998,0 0,-3 4.998,0 0,3 z"
   style="fill:#231f20;fill-opacity:1;fill-rule:evenodd;stroke:none"
   id="path230" /><path
   d="m 104.478,10.689 -4.997,0 0,-3 4.997,0 0,3 z"
   style="fill:#231f20;fill-opacity:1;fill-rule:evenodd;stroke:none"
   id="path232" /><path
   d="m 59.658,10.689 -4.998,0 0,-3 4.998,0 0,3 z"
   style="fill:#231f20;fill-opacity:1;fill-rule:evenodd;stroke:none"
   id="path234" /><path
   d="m 68.621,10.689 -4.998,0 0,-3 4.998,0 0,3 z"
   style="fill:#231f20;fill-opacity:1;fill-rule:evenodd;stroke:none"
   id="path236" /><path
   d="m 77.555,10.689 -4.997,0 0,-3 4.997,0 0,3 z"
   style="fill:#231f20;fill-opacity:1;fill-rule:evenodd;stroke:none"
   id="path238" /><path
   d="m 32.734,10.689 -4.997,0 0,-3 4.997,0 0,3 z"
   style="fill:#231f20;fill-opacity:1;fill-rule:evenodd;stroke:none"
   id="path240" /><path
   d="m 41.698,10.689 -4.998,0 0,-3 4.998,0 0,3 z"
   style="fill:#231f20;fill-opacity:1;fill-rule:evenodd;stroke:none"
   id="path242" /><path
   d="m 50.631,10.689 -4.997,0 0,-3 4.997,0 0,3 z"
   style="fill:#231f20;fill-opacity:1;fill-rule:evenodd;stroke:none"
   id="path244" /><path
   d="m 9.477,115.813 3.012,0 0,5.002 -3.012,0 0,-5.002 z"
   style="fill:#231f20;fill-opacity:1;fill-rule:evenodd;stroke:none"
   id="path246" /><g
   id="g248"
   transform="translate(9.4766,129.8145)"><path
     d="m 0,0 0,-5 3.012,0 0,2 L 5,-3 5,0 0,0 z"
     style="fill:#231f20;fill-opacity:1;fill-rule:evenodd;stroke:none"
     id="path250" /></g><path
   d="m 18.477,126.814 5,0 0,3 -5,0 0,-3 z"
   style="fill:#231f20;fill-opacity:1;fill-rule:evenodd;stroke:none"
   id="path252" /><path
   d="m 377.813,127.012 5.002,0 0,3.012 -5.002,0 0,-3.012 z"
   style="fill:#231f20;fill-opacity:1;fill-rule:evenodd;stroke:none"
   id="path254" /><g
   id="g256"
   transform="translate(391.8145,130.0234)"><path
     d="m 0,0 -5,0 0,-3.012 2,0 0,-1.988 3,0 0,5 z"
     style="fill:#231f20;fill-opacity:1;fill-rule:evenodd;stroke:none"
     id="path258" /></g><path
   d="m 391.814,121.023 -3,0 0,-5 3,0 0,5 z"
   style="fill:#231f20;fill-opacity:1;fill-rule:evenodd;stroke:none"
   id="path260" /><path
   d="m 392.023,21.688 -3.012,0 0,-5.002 3.012,0 0,5.002 z"
   style="fill:#231f20;fill-opacity:1;fill-rule:evenodd;stroke:none"
   id="path262" /><g
   id="g264"
   transform="translate(392.0234,7.6855)"><path
     d="m 0,0 0,5 -3.012,0 0,-2 L -5,3 -5,0 0,0 z"
     style="fill:#231f20;fill-opacity:1;fill-rule:evenodd;stroke:none"
     id="path266" /></g><path
   d="m 383.023,10.686 -5,0 0,-3 5,0 0,3 z"
   style="fill:#231f20;fill-opacity:1;fill-rule:evenodd;stroke:none"
   id="path268" /><path
   d="m 23.688,10.488 -5.002,0 0,-3.012 5.002,0 0,3.012 z"
   style="fill:#231f20;fill-opacity:1;fill-rule:evenodd;stroke:none"
   id="path270" /><g
   id="g272"
   transform="translate(9.6855,7.4766)"><path
     d="m 0,0 5,0 0,3.012 -2,0 L 3,5 0,5 0,0 z"
     style="fill:#231f20;fill-opacity:1;fill-rule:evenodd;stroke:none"
     id="path274" /></g><path
   d="m 9.686,16.477 3,0 0,5 -3,0 0,-5 z"
   style="fill:#231f20;fill-opacity:1;fill-rule:evenodd;stroke:none"
   id="path276" /><text
   xml:space="preserve"
   style="font-size:40px;font-style:normal;font-weight:normal;line-height:125%;letter-spacing:0px;word-spacing:0px;fill:#000000;fill-opacity:1;stroke:none;font-family:Sans"
   x="359.0892"
   y="55.456352"
   id="text4215"
   sodipodi:linespacing="125%"
   transform="matrix(0.8,0,0,-0.8,0,141.5)"><tspan
     sodipodi:role="line"
     id="tspan4217"
     x="359.0892"
     y="55.456352" /></text>




<text
   xml:space="preserve"
   style="font-size:40px;font-style:normal;font-weight:normal;line-height:125%;letter-spacing:0px;word-spacing:0px;fill:#000000;fill-opacity:1;stroke:none;font-family:Sans"
   x="418.87589"
   y="34.420292"
   id="text4219"
   sodipodi:linespacing="125%"
   transform="matrix(0.8,0,0,-0.8,0,141.5)"><tspan
     sodipodi:role="line"
     id="tspan4221"
     x="418.87589"
     y="34.420292" /></text>




<g
   id="g5063"
   transform="translate(0,-1.6)"><text
   y="-15.9082"
   x="281.80063"
   id="text42"
   transform="scale(1,-1)"><tspan
     y="-15.9082"
     x="281.80063"
     id="tspan44"
     sodipodi:role="line"
     style="font-size:11.19999981px;font-variant:normal;font-weight:normal;font-stretch:semi-condensed;writing-mode:lr-tb;fill:#000000;fill-opacity:1;fill-rule:nonzero;stroke:none;font-family:Arial Narrow;-inkscape-font-specification:ArialNarrow">www.qcshvac.com</tspan></text>




<text
   transform="scale(1,-1)"
   id="text4235"
   x="21.257832"
   y="-15.9082"><tspan
     style="font-size:11.19999981px;font-variant:normal;font-weight:normal;font-stretch:semi-condensed;writing-mode:lr-tb;fill:#000000;fill-opacity:1;fill-rule:nonzero;stroke:none;font-family:Arial Narrow;-inkscape-font-specification:ArialNarrow"
     sodipodi:role="line"
     id="tspan4237"
     x="21.257832"
     y="-15.9082">714 633-8500</tspan></text>




</g><text
   xml:space="preserve"
   style="font-size:40px;font-style:normal;font-weight:normal;line-height:125%;letter-spacing:0px;word-spacing:0px;fill:#000000;fill-opacity:1;stroke:none;font-family:Sans"
   x="105.9499"
   y="113.20068"
   id="text4239"
   sodipodi:linespacing="125%"
   transform="matrix(0.8,0,0,-0.8,0,141.5)"><tspan
     sodipodi:role="line"
     id="tspan4241" /></text>




<text
   xml:space="preserve"
   style="font-size:11.57266712px;font-style:normal;font-weight:normal;line-height:125%;letter-spacing:0px;word-spacing:0px;fill:#999999;fill-opacity:1;stroke:none;font-family:Sans"
   x="240.12534"
   y="-112.79539"
   id="text4243"
   sodipodi:linespacing="125%"
   transform="scale(1,-1)"><tspan
     sodipodi:role="line"
     id="tspan4245"
     x="240.12534"
     y="-112.79539"
     style="font-weight:bold;fill:#999999;fill-opacity:1;-inkscape-font-specification:Sans Bold">*</tspan></text>




<text
   xml:space="preserve"
   x="244.57365"
   y="-85.782433"
   id="text4223"
   transform="scale(1,-1)"
   style="font-size:48.83656311px;font-weight:bold;text-align:center;letter-spacing:-0.04066996px;text-anchor:middle;fill:#00b7ff;fill-opacity:1;-inkscape-font-specification:Sans Bold"><tspan
     sodipodi:role="line"
     id="tspan4225"
     x="244.57365"
     y="-85.782433"
     style="text-align:start;letter-spacing:0px;word-spacing:0px;text-anchor:start;fill:#00b7ff;fill-opacity:1">Free!</tspan></text>










</g></svg>