<?xml version="1.0" encoding="UTF-8" standalone="no"?>
<!-- Created with Inkscape (http://www.inkscape.org/) -->

<svg
   xmlns:dc="http://purl.org/dc/elements/1.1/"
   xmlns:cc="http://creativecommons.org/ns#"
   xmlns:rdf="http://www.w3.org/1999/02/22-rdf-syntax-ns#"
   xmlns:svg="http://www.w3.org/2000/svg"
   xmlns="http://www.w3.org/2000/svg"
   xmlns:sodipodi="http://sodipodi.sourceforge.net/DTD/sodipodi-0.dtd"
   xmlns:inkscape="http://www.inkscape.org/namespaces/inkscape"
   width="30.037254"
   height="29.999989"
   id="svg2"
   version="1.1"
   inkscape:version="0.48.1 r9760"
   sodipodi:docname="lintfire-icon.svg"
   inkscape:export-filename="/var/www/qcshvac/images/coupon/svg/lintfire-icon.png"
   inkscape:export-xdpi="90.000038"
   inkscape:export-ydpi="90.000038">
  <defs
     id="defs4" />
  <sodipodi:namedview
     id="base"
     pagecolor="#ffffff"
     bordercolor="#666666"
     borderopacity="1.0"
     inkscape:pageopacity="0.0"
     inkscape:pageshadow="2"
     inkscape:zoom="8"
     inkscape:cx="24.013728"
     inkscape:cy="16.619769"
     inkscape:document-units="px"
     inkscape:current-layer="g3909"
     showgrid="false"
     fit-margin-top="0"
     fit-margin-left="0"
     fit-margin-right="0"
     fit-margin-bottom="0"
     inkscape:window-width="1366"
     inkscape:window-height="691"
     inkscape:window-x="0"
     inkscape:window-y="24"
     inkscape:window-maximized="1">
    <inkscape:grid
       type="xygrid"
       id="grid2985"
       empspacing="5"
       visible="true"
       enabled="true"
       snapvisiblegridlinesonly="true" />
  </sodipodi:namedview>
  <metadata
     id="metadata7">
    <rdf:RDF>
      <cc:Work
         rdf:about="">
        <dc:format>image/svg+xml</dc:format>
        <dc:type
           rdf:resource="http://purl.org/dc/dcmitype/StillImage" />
        <dc:title></dc:title>
      </cc:Work>
    </rdf:RDF>
  </metadata>
  <g
     inkscape:label="Layer 1"
     inkscape:groupmode="layer"
     id="layer1"
     transform="translate(-202.7348,-446.09286)">
    <flowRoot
       xml:space="preserve"
       id="flowRoot3827"
       style="font-size:40px;font-style:normal;font-weight:normal;line-height:125%;letter-spacing:0px;word-spacing:0px;fill:#000000;fill-opacity:1;stroke:none;font-family:Sans"><flowRegion
         id="flowRegion3829"><rect
           id="rect3831"
           width="76.771591"
           height="66.670067"
           x="393.9595"
           y="100.79848" /></flowRegion><flowPara
         id="flowPara3833"></flowPara></flowRoot>    <g
       id="g3878"
       transform="matrix(0.11017321,0,0,0.11478133,187.63386,414.31298)">
      <g
         transform="matrix(3.393613,0,0,2.0964737,-1485.7153,-250.6447)"
         style="font-size:40px;font-style:normal;font-weight:normal;line-height:125%;letter-spacing:0px;word-spacing:0px;fill:#ffffff;fill-opacity:1;stroke:none;font-family:Sans"
         id="flowRoot3847">
        <g
           id="g3892">
          <g
             id="g3909"
             transform="matrix(1.4991844,0,0,1.5008622,-258.77997,-157.24884)">
            <g
               id="g3917">
              <path
                 transform="matrix(0.29421464,0,0,0.47625239,437.89328,-48.719438)"
                 d="m 295.71429,778.07648 c -0.0927,-0.0624 0.12119,-0.21421 0.15283,-0.22704 0.57222,-0.23198 0.96848,0.55263 0.98872,0.99544 0.0725,1.58597 -1.797,2.34489 -3.11797,2.1678 -3.13892,-0.42081 -4.42702,-4.05623 -3.76333,-6.79977 1.27937,-5.28867 7.47132,-7.28586 12.23789,-5.79013 8.08529,2.53713 10.98075,12.15441 8.26525,19.59128 -4.22513,11.57127 -18.20017,15.56313 -28.99541,11.20568 -15.78382,-6.37106 -21.07879,-25.69141 -14.62778,-40.56947 8.99979,-20.75634 34.70219,-27.56924 54.42054,-18.54712 26.5194,12.13392 35.07264,45.29979 22.97858,70.64627 -15.79422,33.10121 -57.54617,43.62438 -89.33679,27.93626 -40.52809,-19.99991 -53.25755,-71.49882 -33.43364,-110.5759 18.9855,-37.42438 61.96577,-56.74635 102.80261,-50.03329"
                 sodipodi:t0="0"
                 sodipodi:argument="-21.398689"
                 sodipodi:radius="104.00157"
                 sodipodi:revolution="3.2"
                 sodipodi:expansion="2.3299999"
                 sodipodi:cy="778.07648"
                 sodipodi:cx="295.71429"
                 id="path3799"
                 style="fill:#ff4700;fill-opacity:1;stroke:#000000;stroke-width:5;stroke-linecap:butt;stroke-linejoin:miter;stroke-miterlimit:4;stroke-opacity:1;stroke-dasharray:none"
                 sodipodi:type="spiral" />
              <path
                 sodipodi:type="spiral"
                 style="fill:#fff80a;fill-opacity:1;stroke:#000000;stroke-width:5;stroke-linecap:butt;stroke-linejoin:miter;stroke-miterlimit:4;stroke-opacity:1;stroke-dasharray:none"
                 id="path3801"
                 sodipodi:cx="295.71429"
                 sodipodi:cy="778.07648"
                 sodipodi:expansion="2.3299999"
                 sodipodi:revolution="2.9247446"
                 sodipodi:radius="84.338448"
                 sodipodi:argument="-21.398689"
                 sodipodi:t0="0"
                 d="m 295.71429,778.07648 c -0.0927,-0.0624 0.12119,-0.21421 0.15283,-0.22704 0.57222,-0.23198 0.96848,0.55263 0.98872,0.99544 0.0725,1.58597 -1.797,2.3449 -3.11797,2.1678 -3.13892,-0.42081 -4.42702,-4.05623 -3.76334,-6.79977 1.27938,-5.28867 7.47133,-7.28587 12.2379,-5.79014 8.0853,2.53714 10.98076,12.15442 8.26526,19.59129 -4.22513,11.57128 -18.20019,15.56314 -28.99543,11.2057 -15.78382,-6.37107 -21.0788,-25.69144 -14.62778,-40.5695 8.99979,-20.75636 34.7022,-27.56925 54.42057,-18.54714 26.51941,12.13394 35.07266,45.29983 22.97859,70.64632 -15.79423,33.10122 -57.54621,43.62441 -89.33684,27.93628 -26.55601,-13.10494 -42.74767,-41.35347 -42.93832,-70.67341"
                 transform="matrix(0.28971751,-0.08295108,0.05124471,0.46897281,402.54872,-46.076347)" />
              <rect
                 transform="matrix(0.2946712,0,0,0.47699144,437.7975,119.55538)"
                 y="412.36218"
                 x="200"
                 height="80"
                 width="120"
                 id="rect2987"
                 style="fill:#000000;fill-opacity:1;stroke:#000000;stroke-width:4.62910032000000005;stroke-miterlimit:4;stroke-opacity:1;stroke-dasharray:none" />
              <path
                 transform="matrix(0.2946712,0,0,0.47699144,437.7975,119.55538)"
                 inkscape:transform-center-y="-37.246816"
                 inkscape:connector-curvature="0"
                 d="M 222.4667,377.64224 260,342.40734 l 38.58519,34.91178 38.5852,34.91179 -76.11851,0.32312 -76.1185,0.32312 z"
                 style="fill:#000000;fill-opacity:1;stroke:#000000;stroke-width:4.74262094000000012;stroke-linejoin:miter;stroke-miterlimit:4;stroke-opacity:1;stroke-dasharray:none"
                 id="path3771" />
              <path
                 d="m 515.33975,338.18151 -1.85547,0 -2.92968,-18.88189 c -1.13934,-7.60929 -1.709,-13.88911 -1.70899,-18.83947 -1e-5,-1.55576 0.50455,-2.94184 1.51367,-4.15827 1.00911,-1.15972 2.37629,-1.73961 4.10157,-1.73968 3.67836,7e-5 5.51755,2.10748 5.51757,6.32226 -2e-5,4.95036 -0.56968,11.1736 -1.70898,18.66974 l -2.92969,18.62731"
                 style="font-size:100px;font-variant:normal;font-stretch:normal;text-align:start;line-height:125%;writing-mode:lr-tb;text-anchor:start;fill:#ffffff;font-family:OpenSymbol;-inkscape-font-specification:OpenSymbol"
                 id="path3889"
                 inkscape:connector-curvature="0"
                 sodipodi:nodetypes="ccccccccc" />
              <path
                 sodipodi:type="arc"
                 style="fill:#ffffff;fill-opacity:1;stroke:none"
                 id="path3903"
                 sodipodi:cx="84.145706"
                 sodipodi:cy="143.04327"
                 sodipodi:rx="4.7729707"
                 sodipodi:ry="4.6845822"
                 d="m 88.918677,143.04327 c 0,2.58723 -2.136932,4.68459 -4.772971,4.68459 -2.636039,0 -4.77297,-2.09736 -4.77297,-4.68459 0,-2.58722 2.136931,-4.68458 4.77297,-4.68458 2.636039,0 4.772971,2.09736 4.772971,4.68458 z"
                 transform="matrix(0.76257437,0,0,1.1848403,450.24466,177.18905)" />
            </g>
          </g>
        </g>
      </g>
    </g>
    <text
       xml:space="preserve"
       style="font-size:40px;font-style:normal;font-weight:normal;line-height:125%;letter-spacing:0px;word-spacing:0px;fill:#000000;fill-opacity:1;stroke:none;font-family:Sans"
       x="352.85715"
       y="252.36218"
       id="text3855"
       sodipodi:linespacing="125%"><tspan
         sodipodi:role="line"
         id="tspan3857"
         x="352.85715"
         y="252.36218"></tspan></text>
  </g>
</svg>
